<?xml version="1.0" encoding="UTF-8" standalone="no"?><!DOCTYPE svg PUBLIC "-//W3C//DTD SVG 1.1//EN" "http://www.w3.org/Graphics/SVG/1.1/DTD/svg11.dtd"><!-- Generated by graphviz version 2.40.1 (20161225.0304)
 --><!-- Title: G Pages: 1 --><svg xmlns="http://www.w3.org/2000/svg" xmlns:xlink="http://www.w3.org/1999/xlink" width="2332pt" height="332pt" viewBox="0.00 0.00 2332.05 332.00">
<g id="graph0" class="graph" transform="scale(1 1) rotate(0) translate(4 328)">
<title>G</title>
<polygon fill="#ffffff" stroke="transparent" points="-4,4 -4,-328 2328.0523,-328 2328.0523,4 -4,4"/>
<!-- 1&#45;e2 -->
<g id="node1" class="node">
<title>1-e2</title>
<ellipse fill="none" stroke="#000000" cx="804.2883" cy="-306" rx="28.3913" ry="18"/>
<text text-anchor="middle" x="804.2883" y="-301.8" font-family="Times,serif" font-size="14.00" fill="#000000">1-e2</text>
</g>
<!-- 2&#45;forge&#45;std -->
<g id="node2" class="node">
<title>2-forge-std</title>
<ellipse fill="none" stroke="#000000" cx="75.2883" cy="-234" rx="53.8712" ry="18"/>
<text text-anchor="middle" x="75.2883" y="-229.8" font-family="Times,serif" font-size="14.00" fill="#000000">2-forge-std</text>
</g>
<!-- 1&#45;e2&#45;&gt;2&#45;forge&#45;std -->
<g id="edge1" class="edge">
<title>1-e2-&gt;2-forge-std</title>
<path fill="none" stroke="#000000" d="M776.1573,-303.2216C669.4291,-292.6806 287.9553,-255.0041 137.2139,-240.1161"/>
<polygon fill="#000000" stroke="#000000" points="137.4903,-236.6265 127.1947,-239.1266 136.8022,-243.5926 137.4903,-236.6265"/>
</g>
<!-- 6&#45;solmate -->
<g id="node3" class="node">
<title>6-solmate</title>
<ellipse fill="none" stroke="#000000" cx="317.2883" cy="-234" rx="49.2338" ry="18"/>
<text text-anchor="middle" x="317.2883" y="-229.8" font-family="Times,serif" font-size="14.00" fill="#000000">6-solmate</text>
</g>
<!-- 1&#45;e2&#45;&gt;6&#45;solmate -->
<g id="edge2" class="edge">
<title>1-e2-&gt;6-solmate</title>
<path fill="none" stroke="#000000" d="M776.5061,-301.993C715.0064,-293.1102 562.7155,-271.0428 435.2883,-252 414.868,-248.9484 392.4691,-245.5456 372.7248,-242.5273"/>
<polygon fill="#000000" stroke="#000000" points="373.0807,-239.0411 362.6663,-240.9879 372.0216,-245.9605 373.0807,-239.0411"/>
</g>
<!-- 10&#45;pigeon -->
<g id="node4" class="node">
<title>10-pigeon</title>
<ellipse fill="none" stroke="#000000" cx="494.2883" cy="-234" rx="50.3858" ry="18"/>
<text text-anchor="middle" x="494.2883" y="-229.8" font-family="Times,serif" font-size="14.00" fill="#000000">10-pigeon</text>
</g>
<!-- 1&#45;e2&#45;&gt;10&#45;pigeon -->
<g id="edge3" class="edge">
<title>1-e2-&gt;10-pigeon</title>
<path fill="none" stroke="#000000" d="M777.5895,-299.799C726.322,-287.8917 613.2708,-261.6346 546.5153,-246.1301"/>
<polygon fill="#000000" stroke="#000000" points="547.1479,-242.684 536.6153,-243.8308 545.5642,-249.5025 547.1479,-242.684"/>
</g>
<!-- 24&#45;safe&#45;tools -->
<g id="node5" class="node">
<title>24-safe-tools</title>
<ellipse fill="none" stroke="#000000" cx="804.2883" cy="-234" rx="61.3935" ry="18"/>
<text text-anchor="middle" x="804.2883" y="-229.8" font-family="Times,serif" font-size="14.00" fill="#000000">24-safe-tools</text>
</g>
<!-- 1&#45;e2&#45;&gt;24&#45;safe&#45;tools -->
<g id="edge4" class="edge">
<title>1-e2-&gt;24-safe-tools</title>
<path fill="none" stroke="#000000" d="M804.2883,-287.8314C804.2883,-280.131 804.2883,-270.9743 804.2883,-262.4166"/>
<polygon fill="#000000" stroke="#000000" points="807.7884,-262.4132 804.2883,-252.4133 800.7884,-262.4133 807.7884,-262.4132"/>
</g>
<!-- 36&#45;openzeppelin&#45;contracts -->
<g id="node6" class="node">
<title>36-openzeppelin-contracts</title>
<ellipse fill="none" stroke="#000000" cx="1075.2883" cy="-234" rx="113.4258" ry="18"/>
<text text-anchor="middle" x="1075.2883" y="-229.8" font-family="Times,serif" font-size="14.00" fill="#000000">36-openzeppelin-contracts</text>
</g>
<!-- 1&#45;e2&#45;&gt;36&#45;openzeppelin&#45;contracts -->
<g id="edge5" class="edge">
<title>1-e2-&gt;36-openzeppelin-contracts</title>
<path fill="none" stroke="#000000" d="M830.7663,-298.9652C871.3065,-288.1944 950.0686,-267.2687 1007.277,-252.0694"/>
<polygon fill="#000000" stroke="#000000" points="1008.2117,-255.4426 1016.9777,-249.4921 1006.4143,-248.6773 1008.2117,-255.4426"/>
</g>
<!-- 44&#45;properties -->
<g id="node7" class="node">
<title>44-properties</title>
<ellipse fill="none" stroke="#000000" cx="1577.2883" cy="-234" rx="62.5392" ry="18"/>
<text text-anchor="middle" x="1577.2883" y="-229.8" font-family="Times,serif" font-size="14.00" fill="#000000">44-properties</text>
</g>
<!-- 1&#45;e2&#45;&gt;44&#45;properties -->
<g id="edge6" class="edge">
<title>1-e2-&gt;44-properties</title>
<path fill="none" stroke="#000000" d="M832.2564,-303.3949C941.7739,-293.1941 1343.4831,-255.7775 1507.1697,-240.5311"/>
<polygon fill="#000000" stroke="#000000" points="1507.9693,-243.9719 1517.6016,-239.5594 1507.3201,-237.002 1507.9693,-243.9719"/>
</g>
<!-- 66&#45;mev&#45;proxy -->
<g id="node8" class="node">
<title>66-mev-proxy</title>
<ellipse fill="none" stroke="#000000" cx="2028.2883" cy="-234" rx="66.0589" ry="18"/>
<text text-anchor="middle" x="2028.2883" y="-229.8" font-family="Times,serif" font-size="14.00" fill="#000000">66-mev-proxy</text>
</g>
<!-- 1&#45;e2&#45;&gt;66&#45;mev&#45;proxy -->
<g id="edge7" class="edge">
<title>1-e2-&gt;66-mev-proxy</title>
<path fill="none" stroke="#000000" d="M832.4469,-304.3436C985.1084,-295.3635 1715.3734,-252.4068 1953.224,-238.4155"/>
<polygon fill="#000000" stroke="#000000" points="1953.7246,-241.8922 1963.5018,-237.811 1953.3135,-234.9043 1953.7246,-241.8922"/>
</g>
<!-- 3&#45;ds&#45;test -->
<g id="node9" class="node">
<title>3-ds-test</title>
<ellipse fill="none" stroke="#000000" cx="44.2883" cy="-162" rx="44.0775" ry="18"/>
<text text-anchor="middle" x="44.2883" y="-157.8" font-family="Times,serif" font-size="14.00" fill="#000000">3-ds-test</text>
</g>
<!-- 2&#45;forge&#45;std&#45;&gt;3&#45;ds&#45;test -->
<g id="edge8" class="edge">
<title>2-forge-std-&gt;3-ds-test</title>
<path fill="none" stroke="#000000" d="M67.4657,-215.8314C63.9882,-207.7547 59.821,-198.0761 55.9851,-189.1668"/>
<polygon fill="#000000" stroke="#000000" points="59.1703,-187.7141 52.001,-179.9134 52.7409,-190.4824 59.1703,-187.7141"/>
</g>
<!-- 7&#45;ds&#45;test -->
<g id="node10" class="node">
<title>7-ds-test</title>
<ellipse fill="none" stroke="#000000" cx="151.2883" cy="-162" rx="44.0775" ry="18"/>
<text text-anchor="middle" x="151.2883" y="-157.8" font-family="Times,serif" font-size="14.00" fill="#000000">7-ds-test</text>
</g>
<!-- 6&#45;solmate&#45;&gt;7&#45;ds&#45;test -->
<g id="edge9" class="edge">
<title>6-solmate-&gt;7-ds-test</title>
<path fill="none" stroke="#000000" d="M285.2818,-220.1177C258.4491,-208.4794 220.0075,-191.8059 191.1747,-179.3001"/>
<polygon fill="#000000" stroke="#000000" points="192.3626,-176.0004 181.7956,-175.2321 189.5771,-182.4223 192.3626,-176.0004"/>
</g>
<!-- 11&#45;forge&#45;std -->
<g id="node11" class="node">
<title>11-forge-std</title>
<ellipse fill="none" stroke="#000000" cx="272.2883" cy="-162" rx="58.529" ry="18"/>
<text text-anchor="middle" x="272.2883" y="-157.8" font-family="Times,serif" font-size="14.00" fill="#000000">11-forge-std</text>
</g>
<!-- 10&#45;pigeon&#45;&gt;11&#45;forge&#45;std -->
<g id="edge10" class="edge">
<title>10-pigeon-&gt;11-forge-std</title>
<path fill="none" stroke="#000000" d="M456.88,-221.8676C420.0069,-209.9087 363.4146,-191.5545 322.6125,-178.3214"/>
<polygon fill="#000000" stroke="#000000" points="323.4537,-174.9148 312.8617,-175.159 321.2942,-181.5734 323.4537,-174.9148"/>
</g>
<!-- 15&#45;solmate -->
<g id="node12" class="node">
<title>15-solmate</title>
<ellipse fill="none" stroke="#000000" cx="403.2883" cy="-162" rx="53.8905" ry="18"/>
<text text-anchor="middle" x="403.2883" y="-157.8" font-family="Times,serif" font-size="14.00" fill="#000000">15-solmate</text>
</g>
<!-- 10&#45;pigeon&#45;&gt;15&#45;solmate -->
<g id="edge11" class="edge">
<title>10-pigeon-&gt;15-solmate</title>
<path fill="none" stroke="#000000" d="M473.1823,-217.3008C461.0078,-207.6682 445.5252,-195.4182 432.2278,-184.8972"/>
<polygon fill="#000000" stroke="#000000" points="434.2937,-182.0687 424.2798,-178.6087 429.9503,-187.5583 434.2937,-182.0687"/>
</g>
<!-- 19&#45;solady -->
<g id="node13" class="node">
<title>19-solady</title>
<ellipse fill="none" stroke="#000000" cx="524.2883" cy="-162" rx="49.2396" ry="18"/>
<text text-anchor="middle" x="524.2883" y="-157.8" font-family="Times,serif" font-size="14.00" fill="#000000">19-solady</text>
</g>
<!-- 10&#45;pigeon&#45;&gt;19&#45;solady -->
<g id="edge12" class="edge">
<title>10-pigeon-&gt;19-solady</title>
<path fill="none" stroke="#000000" d="M501.8585,-215.8314C505.2238,-207.7547 509.2566,-198.0761 512.9688,-189.1668"/>
<polygon fill="#000000" stroke="#000000" points="516.2089,-190.4904 516.8243,-179.9134 509.7474,-187.798 516.2089,-190.4904"/>
</g>
<!-- 25&#45;forge&#45;std -->
<g id="node17" class="node">
<title>25-forge-std</title>
<ellipse fill="none" stroke="#000000" cx="650.2883" cy="-162" rx="58.529" ry="18"/>
<text text-anchor="middle" x="650.2883" y="-157.8" font-family="Times,serif" font-size="14.00" fill="#000000">25-forge-std</text>
</g>
<!-- 24&#45;safe&#45;tools&#45;&gt;25&#45;forge&#45;std -->
<g id="edge16" class="edge">
<title>24-safe-tools-&gt;25-forge-std</title>
<path fill="none" stroke="#000000" d="M771.6288,-218.7307C748.3767,-207.8595 716.9415,-193.1625 691.8931,-181.4516"/>
<polygon fill="#000000" stroke="#000000" points="693.1774,-178.1885 682.6362,-177.1237 690.2127,-184.5297 693.1774,-178.1885"/>
</g>
<!-- 29&#45;safe&#45;contracts -->
<g id="node18" class="node">
<title>29-safe-contracts</title>
<ellipse fill="none" stroke="#000000" cx="804.2883" cy="-162" rx="77.5434" ry="18"/>
<text text-anchor="middle" x="804.2883" y="-157.8" font-family="Times,serif" font-size="14.00" fill="#000000">29-safe-contracts</text>
</g>
<!-- 24&#45;safe&#45;tools&#45;&gt;29&#45;safe&#45;contracts -->
<g id="edge17" class="edge">
<title>24-safe-tools-&gt;29-safe-contracts</title>
<path fill="none" stroke="#000000" d="M804.2883,-215.8314C804.2883,-208.131 804.2883,-198.9743 804.2883,-190.4166"/>
<polygon fill="#000000" stroke="#000000" points="807.7884,-190.4132 804.2883,-180.4133 800.7884,-190.4133 807.7884,-190.4132"/>
</g>
<!-- 31&#45;solady -->
<g id="node19" class="node">
<title>31-solady</title>
<ellipse fill="none" stroke="#000000" cx="949.2883" cy="-162" rx="49.2396" ry="18"/>
<text text-anchor="middle" x="949.2883" y="-157.8" font-family="Times,serif" font-size="14.00" fill="#000000">31-solady</text>
</g>
<!-- 24&#45;safe&#45;tools&#45;&gt;31&#45;solady -->
<g id="edge18" class="edge">
<title>24-safe-tools-&gt;31-solady</title>
<path fill="none" stroke="#000000" d="M835.7511,-218.3771C857.8106,-207.4234 887.4278,-192.7169 910.8814,-181.071"/>
<polygon fill="#000000" stroke="#000000" points="912.4635,-184.1932 919.8635,-176.6109 909.3503,-177.9236 912.4635,-184.1932"/>
</g>
<!-- 37&#45;forge&#45;std -->
<g id="node22" class="node">
<title>37-forge-std</title>
<ellipse fill="none" stroke="#000000" cx="1075.2883" cy="-162" rx="58.529" ry="18"/>
<text text-anchor="middle" x="1075.2883" y="-157.8" font-family="Times,serif" font-size="14.00" fill="#000000">37-forge-std</text>
</g>
<!-- 36&#45;openzeppelin&#45;contracts&#45;&gt;37&#45;forge&#45;std -->
<g id="edge21" class="edge">
<title>36-openzeppelin-contracts-&gt;37-forge-std</title>
<path fill="none" stroke="#000000" d="M1075.2883,-215.8314C1075.2883,-208.131 1075.2883,-198.9743 1075.2883,-190.4166"/>
<polygon fill="#000000" stroke="#000000" points="1078.7884,-190.4132 1075.2883,-180.4133 1071.7884,-190.4133 1078.7884,-190.4132"/>
</g>
<!-- 41&#45;erc4626&#45;tests -->
<g id="node23" class="node">
<title>41-erc4626-tests</title>
<ellipse fill="none" stroke="#000000" cx="1227.2883" cy="-162" rx="75.2809" ry="18"/>
<text text-anchor="middle" x="1227.2883" y="-157.8" font-family="Times,serif" font-size="14.00" fill="#000000">41-erc4626-tests</text>
</g>
<!-- 36&#45;openzeppelin&#45;contracts&#45;&gt;41&#45;erc4626&#45;tests -->
<g id="edge22" class="edge">
<title>36-openzeppelin-contracts-&gt;41-erc4626-tests</title>
<path fill="none" stroke="#000000" d="M1111.6961,-216.7542C1133.4643,-206.4429 1161.2449,-193.2837 1184.1157,-182.4502"/>
<polygon fill="#000000" stroke="#000000" points="1185.7217,-185.5623 1193.2608,-178.1183 1182.7251,-179.2361 1185.7217,-185.5623"/>
</g>
<!-- 45&#45;forge&#45;std -->
<g id="node25" class="node">
<title>45-forge-std</title>
<ellipse fill="none" stroke="#000000" cx="1379.2883" cy="-162" rx="58.529" ry="18"/>
<text text-anchor="middle" x="1379.2883" y="-157.8" font-family="Times,serif" font-size="14.00" fill="#000000">45-forge-std</text>
</g>
<!-- 44&#45;properties&#45;&gt;45&#45;forge&#45;std -->
<g id="edge24" class="edge">
<title>44-properties-&gt;45-forge-std</title>
<path fill="none" stroke="#000000" d="M1538.1698,-219.7751C1506.2687,-208.1747 1461.0797,-191.7423 1427.0455,-179.3663"/>
<polygon fill="#000000" stroke="#000000" points="1427.9104,-175.9566 1417.3163,-175.8284 1425.5182,-182.5352 1427.9104,-175.9566"/>
</g>
<!-- 49&#45;solmate -->
<g id="node26" class="node">
<title>49-solmate</title>
<ellipse fill="none" stroke="#000000" cx="1510.2883" cy="-162" rx="53.8905" ry="18"/>
<text text-anchor="middle" x="1510.2883" y="-157.8" font-family="Times,serif" font-size="14.00" fill="#000000">49-solmate</text>
</g>
<!-- 44&#45;properties&#45;&gt;49&#45;solmate -->
<g id="edge25" class="edge">
<title>44-properties-&gt;49-solmate</title>
<path fill="none" stroke="#000000" d="M1561.0694,-216.5708C1552.7574,-207.6385 1542.4907,-196.6056 1533.3688,-186.8029"/>
<polygon fill="#000000" stroke="#000000" points="1535.7323,-184.2051 1526.3577,-179.2687 1530.6078,-188.9737 1535.7323,-184.2051"/>
</g>
<!-- 53&#45;ERC4626 -->
<g id="node27" class="node">
<title>53-ERC4626</title>
<ellipse fill="none" stroke="#000000" cx="1644.2883" cy="-162" rx="62.004" ry="18"/>
<text text-anchor="middle" x="1644.2883" y="-157.8" font-family="Times,serif" font-size="14.00" fill="#000000">53-ERC4626</text>
</g>
<!-- 44&#45;properties&#45;&gt;53&#45;ERC4626 -->
<g id="edge26" class="edge">
<title>44-properties-&gt;53-ERC4626</title>
<path fill="none" stroke="#000000" d="M1593.5071,-216.5708C1601.758,-207.7041 1611.9349,-196.7678 1621.0064,-187.0194"/>
<polygon fill="#000000" stroke="#000000" points="1623.7365,-189.2233 1627.9866,-179.5182 1618.612,-184.4546 1623.7365,-189.2233"/>
</g>
<!-- 55&#45;abdk&#45;libraries&#45;solidity -->
<g id="node28" class="node">
<title>55-abdk-libraries-solidity</title>
<ellipse fill="none" stroke="#000000" cx="1834.2883" cy="-162" rx="109.9479" ry="18"/>
<text text-anchor="middle" x="1834.2883" y="-157.8" font-family="Times,serif" font-size="14.00" fill="#000000">55-abdk-libraries-solidity</text>
</g>
<!-- 44&#45;properties&#45;&gt;55&#45;abdk&#45;libraries&#45;solidity -->
<g id="edge27" class="edge">
<title>44-properties-&gt;55-abdk-libraries-solidity</title>
<path fill="none" stroke="#000000" d="M1622.3483,-221.3762C1662.8517,-210.0289 1722.8406,-193.2227 1768.6685,-180.3837"/>
<polygon fill="#000000" stroke="#000000" points="1769.8294,-183.6934 1778.5144,-177.6254 1767.941,-176.9529 1769.8294,-183.6934"/>
</g>
<!-- 57&#45;openzeppelin&#45;contracts -->
<g id="node29" class="node">
<title>57-openzeppelin-contracts</title>
<ellipse fill="none" stroke="#000000" cx="2075.2883" cy="-162" rx="113.4258" ry="18"/>
<text text-anchor="middle" x="2075.2883" y="-157.8" font-family="Times,serif" font-size="14.00" fill="#000000">57-openzeppelin-contracts</text>
</g>
<!-- 44&#45;properties&#45;&gt;57&#45;openzeppelin&#45;contracts -->
<g id="edge28" class="edge">
<title>44-properties-&gt;57-openzeppelin-contracts</title>
<path fill="none" stroke="#000000" d="M1633.3561,-226.0163C1706.8415,-215.5366 1839.7365,-196.5307 1953.2883,-180 1962.6443,-178.638 1972.4027,-177.2102 1982.1464,-175.78"/>
<polygon fill="#000000" stroke="#000000" points="1982.8926,-179.208 1992.2775,-174.2912 1981.8748,-172.2824 1982.8926,-179.208"/>
</g>
<!-- 67&#45;forge&#45;std -->
<g id="node35" class="node">
<title>67-forge-std</title>
<ellipse fill="none" stroke="#000000" cx="2265.2883" cy="-162" rx="58.529" ry="18"/>
<text text-anchor="middle" x="2265.2883" y="-157.8" font-family="Times,serif" font-size="14.00" fill="#000000">67-forge-std</text>
</g>
<!-- 66&#45;mev&#45;proxy&#45;&gt;67&#45;forge&#45;std -->
<g id="edge34" class="edge">
<title>66-mev-proxy-&gt;67-forge-std</title>
<path fill="none" stroke="#000000" d="M2072.5881,-220.5418C2112.527,-208.4085 2171.2823,-190.5588 2213.4042,-177.7622"/>
<polygon fill="#000000" stroke="#000000" points="2214.645,-181.0433 2223.1958,-174.7876 2212.6102,-174.3456 2214.645,-181.0433"/>
</g>
<!-- 12&#45;ds&#45;test -->
<g id="node14" class="node">
<title>12-ds-test</title>
<ellipse fill="none" stroke="#000000" cx="272.2883" cy="-90" rx="49.2338" ry="18"/>
<text text-anchor="middle" x="272.2883" y="-85.8" font-family="Times,serif" font-size="14.00" fill="#000000">12-ds-test</text>
</g>
<!-- 11&#45;forge&#45;std&#45;&gt;12&#45;ds&#45;test -->
<g id="edge13" class="edge">
<title>11-forge-std-&gt;12-ds-test</title>
<path fill="none" stroke="#000000" d="M272.2883,-143.8314C272.2883,-136.131 272.2883,-126.9743 272.2883,-118.4166"/>
<polygon fill="#000000" stroke="#000000" points="275.7884,-118.4132 272.2883,-108.4133 268.7884,-118.4133 275.7884,-118.4132"/>
</g>
<!-- 16&#45;ds&#45;test -->
<g id="node15" class="node">
<title>16-ds-test</title>
<ellipse fill="none" stroke="#000000" cx="403.2883" cy="-90" rx="49.2338" ry="18"/>
<text text-anchor="middle" x="403.2883" y="-85.8" font-family="Times,serif" font-size="14.00" fill="#000000">16-ds-test</text>
</g>
<!-- 15&#45;solmate&#45;&gt;16&#45;ds&#45;test -->
<g id="edge14" class="edge">
<title>15-solmate-&gt;16-ds-test</title>
<path fill="none" stroke="#000000" d="M403.2883,-143.8314C403.2883,-136.131 403.2883,-126.9743 403.2883,-118.4166"/>
<polygon fill="#000000" stroke="#000000" points="406.7884,-118.4132 403.2883,-108.4133 399.7884,-118.4133 406.7884,-118.4132"/>
</g>
<!-- 20&#45;ds&#45;test -->
<g id="node16" class="node">
<title>20-ds-test</title>
<ellipse fill="none" stroke="#000000" cx="524.2883" cy="-90" rx="49.2338" ry="18"/>
<text text-anchor="middle" x="524.2883" y="-85.8" font-family="Times,serif" font-size="14.00" fill="#000000">20-ds-test</text>
</g>
<!-- 19&#45;solady&#45;&gt;20&#45;ds&#45;test -->
<g id="edge15" class="edge">
<title>19-solady-&gt;20-ds-test</title>
<path fill="none" stroke="#000000" d="M524.2883,-143.8314C524.2883,-136.131 524.2883,-126.9743 524.2883,-118.4166"/>
<polygon fill="#000000" stroke="#000000" points="527.7884,-118.4132 524.2883,-108.4133 520.7884,-118.4133 527.7884,-118.4132"/>
</g>
<!-- 26&#45;ds&#45;test -->
<g id="node20" class="node">
<title>26-ds-test</title>
<ellipse fill="none" stroke="#000000" cx="650.2883" cy="-90" rx="49.2338" ry="18"/>
<text text-anchor="middle" x="650.2883" y="-85.8" font-family="Times,serif" font-size="14.00" fill="#000000">26-ds-test</text>
</g>
<!-- 25&#45;forge&#45;std&#45;&gt;26&#45;ds&#45;test -->
<g id="edge19" class="edge">
<title>25-forge-std-&gt;26-ds-test</title>
<path fill="none" stroke="#000000" d="M650.2883,-143.8314C650.2883,-136.131 650.2883,-126.9743 650.2883,-118.4166"/>
<polygon fill="#000000" stroke="#000000" points="653.7884,-118.4132 650.2883,-108.4133 646.7884,-118.4133 653.7884,-118.4132"/>
</g>
<!-- 32&#45;ds&#45;test -->
<g id="node21" class="node">
<title>32-ds-test</title>
<ellipse fill="none" stroke="#000000" cx="949.2883" cy="-90" rx="49.2338" ry="18"/>
<text text-anchor="middle" x="949.2883" y="-85.8" font-family="Times,serif" font-size="14.00" fill="#000000">32-ds-test</text>
</g>
<!-- 31&#45;solady&#45;&gt;32&#45;ds&#45;test -->
<g id="edge20" class="edge">
<title>31-solady-&gt;32-ds-test</title>
<path fill="none" stroke="#000000" d="M949.2883,-143.8314C949.2883,-136.131 949.2883,-126.9743 949.2883,-118.4166"/>
<polygon fill="#000000" stroke="#000000" points="952.7884,-118.4132 949.2883,-108.4133 945.7884,-118.4133 952.7884,-118.4132"/>
</g>
<!-- 38&#45;ds&#45;test -->
<g id="node24" class="node">
<title>38-ds-test</title>
<ellipse fill="none" stroke="#000000" cx="1075.2883" cy="-90" rx="49.2338" ry="18"/>
<text text-anchor="middle" x="1075.2883" y="-85.8" font-family="Times,serif" font-size="14.00" fill="#000000">38-ds-test</text>
</g>
<!-- 37&#45;forge&#45;std&#45;&gt;38&#45;ds&#45;test -->
<g id="edge23" class="edge">
<title>37-forge-std-&gt;38-ds-test</title>
<path fill="none" stroke="#000000" d="M1075.2883,-143.8314C1075.2883,-136.131 1075.2883,-126.9743 1075.2883,-118.4166"/>
<polygon fill="#000000" stroke="#000000" points="1078.7884,-118.4132 1075.2883,-108.4133 1071.7884,-118.4133 1078.7884,-118.4132"/>
</g>
<!-- 46&#45;ds&#45;test -->
<g id="node30" class="node">
<title>46-ds-test</title>
<ellipse fill="none" stroke="#000000" cx="1379.2883" cy="-90" rx="49.2338" ry="18"/>
<text text-anchor="middle" x="1379.2883" y="-85.8" font-family="Times,serif" font-size="14.00" fill="#000000">46-ds-test</text>
</g>
<!-- 45&#45;forge&#45;std&#45;&gt;46&#45;ds&#45;test -->
<g id="edge29" class="edge">
<title>45-forge-std-&gt;46-ds-test</title>
<path fill="none" stroke="#000000" d="M1379.2883,-143.8314C1379.2883,-136.131 1379.2883,-126.9743 1379.2883,-118.4166"/>
<polygon fill="#000000" stroke="#000000" points="1382.7884,-118.4132 1379.2883,-108.4133 1375.7884,-118.4133 1382.7884,-118.4132"/>
</g>
<!-- 50&#45;ds&#45;test -->
<g id="node31" class="node">
<title>50-ds-test</title>
<ellipse fill="none" stroke="#000000" cx="1510.2883" cy="-90" rx="49.2338" ry="18"/>
<text text-anchor="middle" x="1510.2883" y="-85.8" font-family="Times,serif" font-size="14.00" fill="#000000">50-ds-test</text>
</g>
<!-- 49&#45;solmate&#45;&gt;50&#45;ds&#45;test -->
<g id="edge30" class="edge">
<title>49-solmate-&gt;50-ds-test</title>
<path fill="none" stroke="#000000" d="M1510.2883,-143.8314C1510.2883,-136.131 1510.2883,-126.9743 1510.2883,-118.4166"/>
<polygon fill="#000000" stroke="#000000" points="1513.7884,-118.4132 1510.2883,-108.4133 1506.7884,-118.4133 1513.7884,-118.4132"/>
</g>
<!-- 58&#45;forge&#45;std -->
<g id="node32" class="node">
<title>58-forge-std</title>
<ellipse fill="none" stroke="#000000" cx="1946.2883" cy="-90" rx="58.529" ry="18"/>
<text text-anchor="middle" x="1946.2883" y="-85.8" font-family="Times,serif" font-size="14.00" fill="#000000">58-forge-std</text>
</g>
<!-- 57&#45;openzeppelin&#45;contracts&#45;&gt;58&#45;forge&#45;std -->
<g id="edge31" class="edge">
<title>57-openzeppelin-contracts-&gt;58-forge-std</title>
<path fill="none" stroke="#000000" d="M2044.061,-144.5708C2025.7794,-134.3672 2002.587,-121.4226 1983.3788,-110.7017"/>
<polygon fill="#000000" stroke="#000000" points="1985.0257,-107.6127 1974.5879,-105.7951 1981.6141,-113.725 1985.0257,-107.6127"/>
</g>
<!-- 62&#45;erc4626&#45;tests -->
<g id="node33" class="node">
<title>62-erc4626-tests</title>
<ellipse fill="none" stroke="#000000" cx="2098.2883" cy="-90" rx="75.2809" ry="18"/>
<text text-anchor="middle" x="2098.2883" y="-85.8" font-family="Times,serif" font-size="14.00" fill="#000000">62-erc4626-tests</text>
</g>
<!-- 57&#45;openzeppelin&#45;contracts&#45;&gt;62&#45;erc4626&#45;tests -->
<g id="edge32" class="edge">
<title>57-openzeppelin-contracts-&gt;62-erc4626-tests</title>
<path fill="none" stroke="#000000" d="M2081.0921,-143.8314C2083.579,-136.0463 2086.5414,-126.7729 2089.3008,-118.1347"/>
<polygon fill="#000000" stroke="#000000" points="2092.6972,-119.0041 2092.4062,-108.4133 2086.0292,-116.874 2092.6972,-119.0041"/>
</g>
<!-- 59&#45;ds&#45;test -->
<g id="node34" class="node">
<title>59-ds-test</title>
<ellipse fill="none" stroke="#000000" cx="1946.2883" cy="-18" rx="49.2338" ry="18"/>
<text text-anchor="middle" x="1946.2883" y="-13.8" font-family="Times,serif" font-size="14.00" fill="#000000">59-ds-test</text>
</g>
<!-- 58&#45;forge&#45;std&#45;&gt;59&#45;ds&#45;test -->
<g id="edge33" class="edge">
<title>58-forge-std-&gt;59-ds-test</title>
<path fill="none" stroke="#000000" d="M1946.2883,-71.8314C1946.2883,-64.131 1946.2883,-54.9743 1946.2883,-46.4166"/>
<polygon fill="#000000" stroke="#000000" points="1949.7884,-46.4132 1946.2883,-36.4133 1942.7884,-46.4133 1949.7884,-46.4132"/>
</g>
<!-- 68&#45;ds&#45;test -->
<g id="node36" class="node">
<title>68-ds-test</title>
<ellipse fill="none" stroke="#000000" cx="2265.2883" cy="-90" rx="49.2338" ry="18"/>
<text text-anchor="middle" x="2265.2883" y="-85.8" font-family="Times,serif" font-size="14.00" fill="#000000">68-ds-test</text>
</g>
<!-- 67&#45;forge&#45;std&#45;&gt;68&#45;ds&#45;test -->
<g id="edge35" class="edge">
<title>67-forge-std-&gt;68-ds-test</title>
<path fill="none" stroke="#000000" d="M2265.2883,-143.8314C2265.2883,-136.131 2265.2883,-126.9743 2265.2883,-118.4166"/>
<polygon fill="#000000" stroke="#000000" points="2268.7884,-118.4132 2265.2883,-108.4133 2261.7884,-118.4133 2268.7884,-118.4132"/>
</g>
</g>
</svg>